<svg width="125" height="96" viewBox="0 0 125 96" fill="none" xmlns="http://www.w3.org/2000/svg">
<path d="M86.3225 8.68041L104.825 12.2264L103.814 33.5165L48.6381 84.5374L15.9283 80.6129L25.2299 34.5259L86.3225 8.68041Z" fill="#434343"/>
<circle cx="38.5855" cy="42.8213" r="19.3759" transform="rotate(92.7192 38.5855 42.8213)" fill="#E98F8F"/>
<circle cx="84.1736" cy="46.3731" r="19.3759" transform="rotate(92.7192 84.1736 46.3731)" fill="#8BD5FF"/>
<path d="M85.9989 9.25753C76.7531 12.5723 57.0845 21.5169 52.3771 30.7769C46.4928 42.3519 27.4045 82.3432 17.7737 85.4422C10.0691 87.9213 5.26765 65.881 3.83003 54.551C4.20761 54.233 4.59207 53.9101 4.98311 53.5824C-0.425879 46.3424 2.78456 33.864 5.0659 28.5298L63.7789 2.86768L79.579 3.6181C79.8762 3.59281 80.13 3.60423 80.3378 3.65415C88.7924 5.68444 87.1817 9.31371 85.9989 9.25753Z" fill="#FFA7A7"/>
<path d="M14.836 10.0267C14.836 10.0267 62.6106 2.51586 63.7793 2.86773C64.9481 3.2196 10.1774 26.9945 8.34703 28.093C4.4676 30.4213 11.4759 14.2138 14.836 10.0267Z" fill="#E66D6D"/>
<path d="M80.3379 3.65424L79.5791 3.6182C71.0789 4.34153 27.0525 35.087 4.9832 53.5825C-0.425777 46.3425 2.78466 33.8641 5.066 28.5299L63.779 2.86778L79.5791 3.6182C79.8763 3.59291 80.1301 3.60432 80.3379 3.65424Z" fill="#F38B8B"/>
<path d="M33.5856 80.9766C43.0425 78.3231 63.2937 70.79 68.6433 61.8856C75.3304 50.7551 97.1956 12.2118 107.021 9.80078C114.882 7.87199 118.114 30.1964 118.748 41.5996C118.349 41.8901 117.943 42.1851 117.53 42.4844C122.414 50.0883 118.33 62.3087 115.678 67.4685L55.2988 88.9198L39.5912 87.0554C39.293 87.0596 39.0406 87.0303 38.8368 86.9658C30.5467 84.3435 32.4097 80.837 33.5856 80.9766Z" fill="#AAE0FF"/>
<path d="M104.625 85.2354C104.625 85.2354 56.4395 89.3533 55.2985 88.9198C54.1576 88.4863 110.471 68.6391 112.374 67.6726C116.408 65.6241 108.273 81.2961 104.625 85.2354Z" fill="#54C1FE"/>
<path d="M38.8369 86.9653L39.5913 87.0549C48.1213 86.9337 94.2093 59.3745 117.53 42.4839C122.414 50.0878 118.33 62.3083 115.678 67.468L55.2989 88.9193L39.5913 87.0549C39.2931 87.0591 39.0407 87.0298 38.8369 86.9653Z" fill="#89D5FF"/>
</svg>
